<svg version="1.1" xmlns="http://www.w3.org/2000/svg" viewBox="0 0 2189.109933035714 1468.5714285714284" width="2189.109933035714" height="1468.5714285714284">
    <!-- svg-source:excalidraw -->

    <defs>
        <style class="style-fonts">
            @font-face {
            font-family: "Virgil";
            src: url("https://excalidraw.com/Virgil.woff2");
            }
            @font-face {
            font-family: "Cascadia";
            src: url("https://excalidraw.com/Cascadia.woff2");
            }
        </style>

    </defs>
    <rect x="0" y="0" width="2189.109933035714" height="1468.5714285714284" fill="#ffffff"></rect><g stroke-linecap="round" transform="translate(1524.5714285714284 108) rotate(0 65 40.5)"><path d="M20.25 0 M20.25 0 C46.11 1.82, 77.34 0.01, 109.75 0 M20.25 0 C40.57 0.75, 61.86 -0.72, 109.75 0 M109.75 0 C125.04 1.57, 128.04 7.81, 130 20.25 M109.75 0 C122.59 -1.71, 128.26 7.09, 130 20.25 M130 20.25 C130.12 36, 131.07 48.85, 130 60.75 M130 20.25 C129.78 32.12, 130.44 43.45, 130 60.75 M130 60.75 C131.39 73.91, 124.01 81.97, 109.75 81 M130 60.75 C128.86 72.76, 121.63 78.88, 109.75 81 M109.75 81 C88.26 80.06, 70.65 80.44, 20.25 81 M109.75 81 C81.88 80.66, 54.52 79.53, 20.25 81 M20.25 81 C5.13 81.97, 1.3 75.06, 0 60.75 M20.25 81 C5.98 81.02, 2.22 73.86, 0 60.75 M0 60.75 C1.16 51.2, 1.08 44.14, 0 20.25 M0 60.75 C-0.76 45.42, 0.12 30.24, 0 20.25 M0 20.25 C-1.14 6.46, 5.51 0.12, 20.25 0 M0 20.25 C0.97 7.81, 5.27 -0.14, 20.25 0" stroke="#1e1e1e" stroke-width="1" fill="none"></path></g><g transform="translate(1551.4914648873464 136) rotate(0 38.07996368408203 12.5)"><text x="38.07996368408203" y="0" font-family="Virgil, Segoe UI Emoji" font-size="20px" fill="#1e1e1e" text-anchor="middle" style="white-space: pre;" direction="ltr" dominant-baseline="text-before-edge">Veículos</text></g><g stroke-linecap="round" transform="translate(442.2857142857143 129.92857142857144) rotate(0 65 40.5)"><path d="M20.25 0 M20.25 0 C52.94 2.23, 85.25 -1.19, 109.75 0 M20.25 0 C43.96 0.01, 68.92 0.26, 109.75 0 M109.75 0 C124.38 -1.14, 128.94 6.2, 130 20.25 M109.75 0 C124.06 -0.93, 128.69 6.42, 130 20.25 M130 20.25 C130.95 28.61, 129.9 40.83, 130 60.75 M130 20.25 C130.52 31.77, 130.09 44.52, 130 60.75 M130 60.75 C129.7 74.49, 123.32 80.37, 109.75 81 M130 60.75 C128.98 76.01, 123.73 78.72, 109.75 81 M109.75 81 C83.12 79.89, 56.71 80.02, 20.25 81 M109.75 81 C87.92 80.1, 68.3 81.99, 20.25 81 M20.25 81 C7.5 81.31, -0.55 75.74, 0 60.75 M20.25 81 C6.47 81.36, 1.76 72.64, 0 60.75 M0 60.75 C-1.68 46.08, 0.86 36.96, 0 20.25 M0 60.75 C-0.9 46.55, -0.47 33.7, 0 20.25 M0 20.25 C-0.84 6.61, 6.94 0.7, 20.25 0 M0 20.25 C-1.89 4.58, 5.5 1.56, 20.25 0" stroke="#1e1e1e" stroke-width="1" fill="none"></path></g><g transform="translate(453.22577013288225 157.92857142857144) rotate(0 54.05994415283203 12.5)"><text x="54.05994415283203" y="0" font-family="Virgil, Segoe UI Emoji" font-size="20px" fill="#1e1e1e" text-anchor="middle" style="white-space: pre;" direction="ltr" dominant-baseline="text-before-edge">Motoristas</text></g><g stroke-linecap="round" transform="translate(445.99999999999994 321.6428571428571) rotate(0 74 40.5)"><path d="M20.25 0 M20.25 0 C43.76 1.69, 64.13 -0.43, 127.75 0 M20.25 0 C54.9 -0.2, 90.71 -0.65, 127.75 0 M127.75 0 C143.23 0.54, 148.93 8.59, 148 20.25 M127.75 0 C140.73 -0.42, 150.24 7.76, 148 20.25 M148 20.25 C148.68 29.09, 146.43 38.44, 148 60.75 M148 20.25 C148.47 29.63, 148.15 38.16, 148 60.75 M148 60.75 C146.85 73.89, 139.72 81.39, 127.75 81 M148 60.75 C149.13 72.92, 143.26 82, 127.75 81 M127.75 81 C88.15 83.05, 51.65 80.91, 20.25 81 M127.75 81 C100.92 81.55, 76.99 82.28, 20.25 81 M20.25 81 C7.63 80.53, -1.36 75.57, 0 60.75 M20.25 81 C5.7 80.44, 2.02 74.23, 0 60.75 M0 60.75 C0.14 45.23, -1.37 27.16, 0 20.25 M0 60.75 C0.52 46.21, -0.09 30.76, 0 20.25 M0 20.25 C1.35 6.78, 8.16 -1.56, 20.25 0 M0 20.25 C-2.11 8.82, 7.01 1.28, 20.25 0" stroke="#1e1e1e" stroke-width="1" fill="none"></path></g><g transform="translate(466.68005371093744 349.642857142857) rotate(0 53.3199462890625 12.5)"><text x="53.3199462890625" y="0" font-family="Virgil, Segoe UI Emoji" font-size="20px" fill="#1e1e1e" text-anchor="middle" style="white-space: pre;" direction="ltr" dominant-baseline="text-before-edge">Passageiro</text></g><g stroke-linecap="round" transform="translate(186.85714285714283 210.85714285714295) rotate(0 65 32.00000000000003)"><path d="M16 0 M16 0 C51.84 -0.88, 85.77 0.76, 114 0 M16 0 C52.5 -0.06, 86.96 -0.7, 114 0 M114 0 C124.49 1.12, 130.84 5.4, 130 16 M114 0 C123.51 -1.1, 130.28 6.33, 130 16 M130 16 C129.11 21.11, 129.8 29.55, 130 48 M130 16 C130.36 24.9, 129.64 34.34, 130 48 M130 48 C128.35 60.44, 125.05 62.5, 114 64 M130 48 C130.91 57.35, 124.87 63.81, 114 64 M114 64 C74.52 64.68, 35.85 62.3, 16 64 M114 64 C83.77 63.68, 54.36 64.73, 16 64 M16 64 C3.54 64.51, 1.19 57.76, 0 48 M16 64 C3.61 65.32, -1.71 57.18, 0 48 M0 48 C1.58 38.95, -0.26 27.97, 0 16 M0 48 C0.06 40.06, 0.63 32.59, 0 16 M0 16 C1.64 4.31, 6.59 -1.91, 16 0 M0 16 C-2.03 3.45, 7.47 -0.31, 16 0" stroke="#1e1e1e" stroke-width="1" fill="none"></path></g><g transform="translate(216.70717947823658 230.35714285714295) rotate(0 35.14996337890625 12.500000000000028)"><text x="35.14996337890625" y="0" font-family="Virgil, Segoe UI Emoji" font-size="20px" fill="#1e1e1e" text-anchor="middle" style="white-space: pre;" direction="ltr" dominant-baseline="text-before-edge">Pessoa</text></g><g stroke-linecap="round" transform="translate(119.4285714285715 65.28571428571433) rotate(0 320.5 210)"><path d="M32 0 M32 0 C206.73 0.46, 381.74 0.68, 609 0 M32 0 C182.53 -0.04, 332.69 0.58, 609 0 M609 0 C632.02 -0.54, 641.55 9.23, 641 32 M609 0 C631.89 2.06, 642.17 10.59, 641 32 M641 32 C640.26 157.79, 641.43 283.45, 641 388 M641 32 C642.37 115.73, 642.66 199.25, 641 388 M641 388 C642.24 408.97, 629.01 420.51, 609 420 M641 388 C643.03 410.41, 628.58 419.44, 609 420 M609 420 C416.21 418.86, 221.46 417.81, 32 420 M609 420 C434.26 419.45, 260.13 419.57, 32 420 M32 420 C12.62 420.32, 1.89 407.83, 0 388 M32 420 C8.42 422.03, -1.68 410.92, 0 388 M0 388 C-1.84 303.85, -2.58 216.81, 0 32 M0 388 C-0.67 257.67, -0.84 127.69, 0 32 M0 32 C0.92 10.82, 11.07 -1.64, 32 0 M0 32 C2.18 9.43, 9.25 -1.57, 32 0" stroke="#1e1e1e" stroke-width="1" fill="none"></path></g><g transform="translate(144.14285714285717 38.428571428571445) rotate(0 61.57994079589844 12.5)"><text x="0" y="0" font-family="Virgil, Segoe UI Emoji" font-size="20px" fill="#1e1e1e" text-anchor="start" style="white-space: pre;" direction="ltr" dominant-baseline="text-before-edge">Funcionários </text></g><g stroke-linecap="round"><g transform="translate(325.85714285714283 213.93110121083834) rotate(0 56.797503508836314 -8.397772722664115)"><path d="M0.6 -1.09 C19.2 -3.97, 93.36 -15.21, 111.95 -17.75 M-0.55 0.95 C18.39 -1.72, 94.95 -13.27, 114.14 -16.46" stroke="#1e1e1e" stroke-width="1" fill="none"></path></g><g transform="translate(325.85714285714283 213.93110121083834) rotate(0 56.797503508836314 -8.397772722664115)"><path d="M86.07 -3.59 C95.79 -8.18, 106.81 -13.24, 114.8 -17.99 M87.58 -1.91 C95.31 -6.92, 103.19 -9.39, 113.53 -17.43" stroke="#1e1e1e" stroke-width="1" fill="none"></path></g><g transform="translate(325.85714285714283 213.93110121083834) rotate(0 56.797503508836314 -8.397772722664115)"><path d="M82.88 -23.86 C93.57 -21.8, 105.64 -20.2, 114.8 -17.99 M84.4 -22.18 C92.87 -21.61, 101.63 -18.47, 113.53 -17.43" stroke="#1e1e1e" stroke-width="1" fill="none"></path></g></g><mask></mask><g stroke-linecap="round"><g transform="translate(305.4510943345203 280.857142857143) rotate(0 64.78226153219867 21.158494649651175)"><path d="M-1 -0.92 C20.75 6.39, 108.54 35.74, 130.57 43.24 M0.67 1.21 C22.21 8.19, 107.74 34.41, 129.37 41.27" stroke="#1e1e1e" stroke-width="1" fill="none"></path></g><g transform="translate(305.4510943345203 280.857142857143) rotate(0 64.78226153219867 21.158494649651175)"><path d="M97.86 41.88 C109.07 42.66, 119.67 40.57, 127.65 40.55 M98.58 43.51 C111.58 42.83, 123.42 41.9, 129.11 41.13" stroke="#1e1e1e" stroke-width="1" fill="none"></path></g><g transform="translate(305.4510943345203 280.857142857143) rotate(0 64.78226153219867 21.158494649651175)"><path d="M103.96 22.29 C113.2 29.02, 121.93 32.93, 127.65 40.55 M104.68 23.92 C115.17 31.08, 124.56 37.97, 129.11 41.13" stroke="#1e1e1e" stroke-width="1" fill="none"></path></g></g><mask></mask><g stroke-linecap="round" transform="translate(1402.5714285714284 40) rotate(0 308.0000000000001 226.5)"><path d="M32 0 M32 0 C163.77 1.28, 296.45 2.63, 584 0 M32 0 C169.54 -0.5, 307.21 -0.58, 584 0 M584 0 C607.23 -0.31, 614.79 10.61, 616 32 M584 0 C606.14 -1.77, 615.84 9.83, 616 32 M616 32 C615.21 150.28, 615.15 266.37, 616 421 M616 32 C614.49 182.91, 613.56 333.64, 616 421 M616 421 C616.9 444.12, 607.11 452.48, 584 453 M616 421 C616.55 441.51, 606.79 453.02, 584 453 M584 453 C437.61 451.47, 290.36 452.31, 32 453 M584 453 C411.32 454.85, 238.56 454.91, 32 453 M32 453 C12.33 451.16, 1.47 440.62, 0 421 M32 453 C12.71 452.4, -0.04 442.57, 0 421 M0 421 C-0.82 308.84, -1.52 198.17, 0 32 M0 421 C-0.14 309.8, -0.16 197.46, 0 32 M0 32 C-0.38 9.26, 10.11 0.37, 32 0 M0 32 C0.73 9.38, 9.36 1.29, 32 0" stroke="#1e1e1e" stroke-width="1" fill="none"></path></g><g stroke-linecap="round" transform="translate(1811.5714285714284 104) rotate(0 64.00000000000011 49.5)"><path d="M24.75 0 M24.75 0 C52.06 -0.8, 79.18 -0.98, 103.25 0 M103.25 0 C120.12 0.64, 126.88 7.11, 128 24.75 M128 24.75 C127.45 42.89, 126.17 58.96, 128 74.25 M128 74.25 C126.78 90.27, 118.08 98.69, 103.25 99 M103.25 99 C86.78 96.93, 65.67 100.09, 24.75 99 M24.75 99 C9.42 100.23, -1.39 91.86, 0 74.25 M0 74.25 C-0.07 61.76, -0.99 46.71, 0 24.75 M0 24.75 C-1.73 9.85, 7.06 -1.58, 24.75 0" stroke="#1e1e1e" stroke-width="1.5" fill="none" stroke-dasharray="8 9"></path></g><g transform="translate(1820.5714285714284 127) rotate(0 53.24996185302746 25)"><text x="0" y="0" font-family="Virgil, Segoe UI Emoji" font-size="20px" fill="#1e1e1e" text-anchor="start" style="white-space: pre;" direction="ltr" dominant-baseline="text-before-edge">Controle </text><text x="0" y="25" font-family="Virgil, Segoe UI Emoji" font-size="20px" fill="#1e1e1e" text-anchor="start" style="white-space: pre;" direction="ltr" dominant-baseline="text-before-edge">de locação</text></g><g stroke-linecap="round" transform="translate(1816.5714285714284 226.5) rotate(0 64.00000000000011 49.5)"><path d="M24.75 0 M24.75 0 C42.74 -0.65, 58.07 2.02, 103.25 0 M103.25 0 C120.72 -0.3, 129.39 6.76, 128 24.75 M128 24.75 C128.65 38.29, 129.94 53.4, 128 74.25 M128 74.25 C128.41 89.02, 118.45 100.05, 103.25 99 M103.25 99 C83.65 99.52, 59.48 97.54, 24.75 99 M24.75 99 C10.2 97.11, -0.53 89.55, 0 74.25 M0 74.25 C-0.94 56.69, -1.23 36.73, 0 24.75 M0 24.75 C-0.36 9.18, 10.19 -1.44, 24.75 0" stroke="#1e1e1e" stroke-width="1.5" fill="none" stroke-dasharray="8 9"></path></g><g transform="translate(1835.5714285714284 251.5) rotate(0 45.23995971679699 25)"><text x="0" y="0" font-family="Virgil, Segoe UI Emoji" font-size="20px" fill="#1e1e1e" text-anchor="start" style="white-space: pre;" direction="ltr" dominant-baseline="text-before-edge">Controle </text><text x="0" y="25" font-family="Virgil, Segoe UI Emoji" font-size="20px" fill="#1e1e1e" text-anchor="start" style="white-space: pre;" direction="ltr" dominant-baseline="text-before-edge">de KM</text></g><g stroke-linecap="round" transform="translate(1819.5714285714284 354.5) rotate(0 64.00000000000011 49.5)"><path d="M24.75 0 M24.75 0 C52.82 0.76, 78.99 -0.7, 103.25 0 M103.25 0 C121.23 0.6, 126.72 10.04, 128 24.75 M128 24.75 C127.3 42.89, 128.34 63.14, 128 74.25 M128 74.25 C127.08 91.97, 121.26 97.98, 103.25 99 M103.25 99 C87.26 99.79, 68.7 97.33, 24.75 99 M24.75 99 C7.07 97.08, -1.81 90.02, 0 74.25 M0 74.25 C1.72 63.02, 1 53.96, 0 24.75 M0 24.75 C1.62 10.13, 7.86 -1.58, 24.75 0" stroke="#1e1e1e" stroke-width="1.5" fill="none" stroke-dasharray="8 9"></path></g><g transform="translate(1833.5714285714284 391.5) rotate(0 50.199951171875114 12.5)"><text x="0" y="0" font-family="Virgil, Segoe UI Emoji" font-size="20px" fill="#1e1e1e" text-anchor="start" style="white-space: pre;" direction="ltr" dominant-baseline="text-before-edge">Relatórios</text></g><g stroke-linecap="round" transform="translate(101.85714285714283 599.142857142857) rotate(0 52 17.5)"><path d="M8.75 0 M8.75 0 C38.31 0.4, 67.66 -1.52, 95.25 0 M95.25 0 C101.08 -1.09, 104.5 2.95, 104 8.75 M104 8.75 C104.73 13.29, 102.4 21.33, 104 26.25 M104 26.25 C103.89 32.37, 99.17 34.42, 95.25 35 M95.25 35 C73.88 34.92, 48.57 36.38, 8.75 35 M8.75 35 C2.03 33.33, 1.31 30.23, 0 26.25 M0 26.25 C-1.37 22.29, 0.51 17.37, 0 8.75 M0 8.75 C1.46 2.85, 2.26 1.88, 8.75 0" stroke="#1e1e1e" stroke-width="1.5" fill="none" stroke-dasharray="8 9"></path></g><g transform="translate(122.95717184884205 604.142857142857) rotate(0 30.89997100830078 12.5)"><text x="30.89997100830078" y="0" font-family="Virgil, Segoe UI Emoji" font-size="20px" fill="#1e1e1e" text-anchor="middle" style="white-space: pre;" direction="ltr" dominant-baseline="text-before-edge">Ideias</text></g><g stroke-linecap="round" transform="translate(104.85714285714283 658.142857142857) rotate(0 53 18)"><path d="M9 0 M9 0 C27.31 2.57, 48.37 2.2, 97 0 M9 0 C41.36 -1.34, 75.27 -1.39, 97 0 M97 0 C103.16 0.77, 104.2 2.88, 106 9 M97 0 C102.23 0.72, 106.08 2.34, 106 9 M106 9 C106.37 17.42, 107.54 23.37, 106 27 M106 9 C106.46 14.29, 105.39 18.47, 106 27 M106 27 C105.94 32.35, 102.03 34.87, 97 36 M106 27 C107.03 34.63, 100.8 37.77, 97 36 M97 36 C78.87 35.69, 59.21 35.02, 9 36 M97 36 C75.4 35.74, 52.27 35.75, 9 36 M9 36 C1.97 37.91, -0.93 32.84, 0 27 M9 36 C1.23 35.28, -1.57 31.1, 0 27 M0 27 C-0.48 20.77, 0.97 17.92, 0 9 M0 27 C-0.06 20.23, 0.44 13.11, 0 9 M0 9 C-0.29 1.73, 1.21 0.28, 9 0 M0 9 C-1.14 2.57, 4.57 -1.17, 9 0" stroke="#1e1e1e" stroke-width="1" fill="none"></path></g><g transform="translate(109.85714285714283 665.142857142857) rotate(0 48.19995880126953 12.5)"><text x="0" y="0" font-family="Virgil, Segoe UI Emoji" font-size="20px" fill="#1e1e1e" text-anchor="start" style="white-space: pre;" direction="ltr" dominant-baseline="text-before-edge">Entidades</text></g><g transform="translate(1441.5714285714284 10) rotate(0 27.899978637695312 12.5)"><text x="0" y="0" font-family="Virgil, Segoe UI Emoji" font-size="20px" fill="#1e1e1e" text-anchor="start" style="white-space: pre;" direction="ltr" dominant-baseline="text-before-edge">Frota</text></g><g stroke-linecap="round" transform="translate(74.85714285714283 568.142857142857) rotate(0 188.5 72)"><path d="M32 0 M32 0 C104.31 1.61, 178.46 1.15, 345 0 M32 0 C147.55 -1.81, 263 -0.7, 345 0 M345 0 C367.16 -1.07, 376.36 10.14, 377 32 M345 0 C366.7 -0.65, 374.88 9.49, 377 32 M377 32 C377.31 54.48, 376.33 80.57, 377 112 M377 32 C378.18 59.09, 378.07 88.07, 377 112 M377 112 C377.94 134.64, 365.19 142.56, 345 144 M377 112 C378.27 133.47, 366.19 143.08, 345 144 M345 144 C259.31 143.39, 170 142.31, 32 144 M345 144 C260.59 142.21, 175.26 142.73, 32 144 M32 144 C10.7 143.12, 0.33 134.76, 0 112 M32 144 C10.59 144.91, 2.24 133.72, 0 112 M0 112 C0.79 83.45, -0.1 57.06, 0 32 M0 112 C-1.16 90.88, -1.02 69.01, 0 32 M0 32 C0.55 10.94, 10.76 -1.56, 32 0 M0 32 C-0.72 10.54, 12.42 -1.68, 32 0" stroke="#1e1e1e" stroke-width="1" fill="none"></path></g><g transform="translate(287.85714285714283 621.142857142857) rotate(0 38.969970703125 12.5)"><text x="0" y="0" font-family="Virgil, Segoe UI Emoji" font-size="20px" fill="#e03131" text-anchor="start" style="white-space: pre;" direction="ltr" dominant-baseline="text-before-edge">Legenda</text></g><g transform="translate(10 825.7142857142859) rotate(0 372.44140625 138)"><text x="0" y="0" font-family="Helvetica, Segoe UI Emoji" font-size="20px" fill="#e03131" text-anchor="start" style="white-space: pre;" direction="ltr" dominant-baseline="text-before-edge">Brainstorm de Casos de Uso</text><text x="0" y="23" font-family="Helvetica, Segoe UI Emoji" font-size="20px" fill="#e03131" text-anchor="start" style="white-space: pre;" direction="ltr" dominant-baseline="text-before-edge"></text><text x="0" y="46" font-family="Helvetica, Segoe UI Emoji" font-size="20px" fill="#e03131" text-anchor="start" style="white-space: pre;" direction="ltr" dominant-baseline="text-before-edge">Cadastrar pessoas e ativá-las por um perfil que pode ser</text><text x="0" y="69" font-family="Helvetica, Segoe UI Emoji" font-size="20px" fill="#e03131" text-anchor="start" style="white-space: pre;" direction="ltr" dominant-baseline="text-before-edge">uma role ou se eu não for colocar login posso usar aqui um </text><text x="0" y="92" font-family="Helvetica, Segoe UI Emoji" font-size="20px" fill="#e03131" text-anchor="start" style="white-space: pre;" direction="ltr" dominant-baseline="text-before-edge">ENUM de Perfil [ Motorista, Passageiro ].</text><text x="0" y="115" font-family="Helvetica, Segoe UI Emoji" font-size="20px" fill="#e03131" text-anchor="start" style="white-space: pre;" direction="ltr" dominant-baseline="text-before-edge">* Pensar em visões diferentes, pessoas com perfil de passageiro / motorista</text><text x="0" y="138" font-family="Helvetica, Segoe UI Emoji" font-size="20px" fill="#e03131" text-anchor="start" style="white-space: pre;" direction="ltr" dominant-baseline="text-before-edge">só visualizam as telas que forem de seu interesse.</text><text x="0" y="161" font-family="Helvetica, Segoe UI Emoji" font-size="20px" fill="#e03131" text-anchor="start" style="white-space: pre;" direction="ltr" dominant-baseline="text-before-edge"></text><text x="0" y="184" font-family="Helvetica, Segoe UI Emoji" font-size="20px" fill="#e03131" text-anchor="start" style="white-space: pre;" direction="ltr" dominant-baseline="text-before-edge">Obs 1: Motorista pode dar aceite na viagem e retirar relatório de veículo</text><text x="0" y="207" font-family="Helvetica, Segoe UI Emoji" font-size="20px" fill="#e03131" text-anchor="start" style="white-space: pre;" direction="ltr" dominant-baseline="text-before-edge"></text><text x="0" y="230" font-family="Helvetica, Segoe UI Emoji" font-size="20px" fill="#e03131" text-anchor="start" style="white-space: pre;" direction="ltr" dominant-baseline="text-before-edge">Obs 2: Passageiro pode solicitar carro de acordo com a quantidade de passageiros </text><text x="0" y="253" font-family="Helvetica, Segoe UI Emoji" font-size="20px" fill="#e03131" text-anchor="start" style="white-space: pre;" direction="ltr" dominant-baseline="text-before-edge">e se há ou não carga a ser transportada.</text></g><g stroke-linecap="round" transform="translate(988.5714285714287 332.8571428571429) rotate(0 88.57142857142844 81.42857142857139)"><path d="M111.25 20.5 M111.25 20.5 C123.32 32.84, 138.97 45.4, 154.89 61.5 M111.25 20.5 C121.13 28.72, 128.79 38.8, 154.89 61.5 M154.89 61.5 C177.7 81.01, 175.56 81.17, 154.89 102.5 M154.89 61.5 C175.93 81.96, 178.08 83.8, 154.89 102.5 M154.89 102.5 C143.5 112.56, 133.64 120.59, 111.25 142.36 M154.89 102.5 C139.56 116.14, 125.61 129.72, 111.25 142.36 M111.25 142.36 C90.71 161.44, 87.03 161.4, 66.75 142.36 M111.25 142.36 C89.28 163.16, 90.66 164.82, 66.75 142.36 M66.75 142.36 C49.4 129.22, 34.42 112.83, 22.25 102.5 M66.75 142.36 C55.7 133.34, 45.19 122.32, 22.25 102.5 M22.25 102.5 C0.66 82.28, 1.06 80.77, 22.25 61.5 M22.25 102.5 C1.79 83.44, -1.68 82.67, 22.25 61.5 M22.25 61.5 C39.56 44.78, 53.2 30.56, 66.75 20.5 M22.25 61.5 C36.32 47.16, 50.72 35.6, 66.75 20.5 M66.75 20.5 C88.24 -0.2, 87.18 1.41, 111.25 20.5 M66.75 20.5 C89.03 -1.47, 90.52 0.68, 111.25 20.5" stroke="#1e1e1e" stroke-width="1" fill="none"></path></g><g transform="translate(1024.2857142857144 392.8571428571429) rotate(0 48.359375 11.5)"><text x="0" y="0" font-family="Helvetica, Segoe UI Emoji" font-size="20px" fill="#1e1e1e" text-anchor="start" style="white-space: pre;" direction="ltr" dominant-baseline="text-before-edge">Solicitação</text></g><g stroke-linecap="round" transform="translate(988.5714285714287 92.85714285714295) rotate(0 88.57142857142844 81.42857142857136)"><path d="M111.25 20.5 M111.25 20.5 C128.78 35.68, 143.29 53.95, 154.89 61.5 M111.25 20.5 C124.62 32.22, 135.89 43.37, 154.89 61.5 M154.89 61.5 C175.29 82.78, 177.3 82.88, 154.89 102.5 M154.89 61.5 C175.83 80.21, 179.02 80.37, 154.89 102.5 M154.89 102.5 C146.03 110.49, 135.13 121.97, 111.25 142.36 M154.89 102.5 C140.11 115.37, 123.9 130.15, 111.25 142.36 M111.25 142.36 C90.11 163.27, 90.83 163.34, 66.75 142.36 M111.25 142.36 C87.99 164.67, 87.7 164.1, 66.75 142.36 M66.75 142.36 C51.13 128.46, 33.37 114.7, 22.25 102.5 M66.75 142.36 C51.04 129.03, 34.22 115.23, 22.25 102.5 M22.25 102.5 C0.13 83.42, 1.55 83.72, 22.25 61.5 M22.25 102.5 C0.87 79.9, -0.85 83.55, 22.25 61.5 M22.25 61.5 C35.65 50.26, 50.42 36.19, 66.75 20.5 M22.25 61.5 C32.4 53.06, 42.24 43.88, 66.75 20.5 M66.75 20.5 C89.32 0.7, 90.04 1.16, 111.25 20.5 M66.75 20.5 C87.23 -2.15, 87.71 0.28, 111.25 20.5" stroke="#1e1e1e" stroke-width="1" fill="none"></path></g><g transform="translate(1024.2857142857144 152.85714285714295) rotate(0 46.6943359375 23)"><text x="0" y="0" font-family="Helvetica, Segoe UI Emoji" font-size="20px" fill="#1e1e1e" text-anchor="start" style="white-space: pre;" direction="ltr" dominant-baseline="text-before-edge">Alocação /</text><text x="0" y="23" font-family="Helvetica, Segoe UI Emoji" font-size="20px" fill="#1e1e1e" text-anchor="start" style="white-space: pre;" direction="ltr" dominant-baseline="text-before-edge">Viagem</text></g><g stroke-linecap="round" transform="translate(877.1428571428571 41.42857142857139) rotate(0 200.71428571428578 238.57142857142858)"><path d="M32 0 M32 0 C130.12 1.64, 227.48 -0.41, 369.43 0 M32 0 C150.73 -2.13, 270.15 -1.56, 369.43 0 M369.43 0 C390.95 -1.66, 401.7 11.08, 401.43 32 M369.43 0 C389.25 0.11, 403.24 11.89, 401.43 32 M401.43 32 C402.18 154.3, 401.21 278.23, 401.43 445.14 M401.43 32 C401.7 123.59, 401.73 216.01, 401.43 445.14 M401.43 445.14 C399.74 465.69, 392.11 476.51, 369.43 477.14 M401.43 445.14 C403.67 467.17, 391.94 479.42, 369.43 477.14 M369.43 477.14 C285.39 475.66, 199.04 477.33, 32 477.14 M369.43 477.14 C275.38 476.3, 179.87 476.47, 32 477.14 M32 477.14 C11.71 476.54, 1.17 465.79, 0 445.14 M32 477.14 C12.01 475.71, 1.88 467.94, 0 445.14 M0 445.14 C0.25 294.03, 0.35 144.02, 0 32 M0 445.14 C-2.05 290.81, -2.18 136.67, 0 32 M0 32 C-1.45 8.75, 10.77 1.93, 32 0 M0 32 C0.64 9.6, 11.88 -1.49, 32 0" stroke="#e03131" stroke-width="1" fill="none"></path></g><g transform="translate(907.1428571428571 17.14285714285711) rotate(0 77.265625 11.5)"><text x="0" y="0" font-family="Helvetica, Segoe UI Emoji" font-size="20px" fill="#1e1e1e" text-anchor="start" style="white-space: pre;" direction="ltr" dominant-baseline="text-before-edge">Relacionamentos</text></g><g stroke-linecap="round"><g transform="translate(578.5714285714287 172.85714285714278) rotate(0 207.833347123542 -0.24385664686562336)"><path d="M0.28 0.46 C69.4 0.23, 346.23 -0.9, 415.39 -0.94" stroke="#1e1e1e" stroke-width="1.5" fill="none" stroke-dasharray="8 9"></path></g><g transform="translate(578.5714285714287 172.85714285714278) rotate(0 207.833347123542 -0.24385664686562336)"><path d="M29.19 -10.45 C16.86 -6.96, 8.72 -2.61, 0.71 1.09" stroke="#1e1e1e" stroke-width="1.5" fill="none"></path></g><g transform="translate(578.5714285714287 172.85714285714278) rotate(0 207.833347123542 -0.24385664686562336)"><path d="M29.26 10.07 C16.84 6.25, 8.67 3.29, 0.71 1.09" stroke="#1e1e1e" stroke-width="1.5" fill="none"></path></g><g transform="translate(578.5714285714287 172.85714285714278) rotate(0 207.833347123542 -0.24385664686562336)"><path d="M387.99 8.85 C395.65 4.84, 407.56 1.81, 415.83 -0.31" stroke="#1e1e1e" stroke-width="1.5" fill="none"></path></g><g transform="translate(578.5714285714287 172.85714285714278) rotate(0 207.833347123542 -0.24385664686562336)"><path d="M387.93 -11.67 C395.69 -8.37, 407.62 -4.09, 415.83 -0.31" stroke="#1e1e1e" stroke-width="1.5" fill="none"></path></g></g><mask></mask><g stroke-linecap="round"><g transform="translate(1160 177.1428571428571) rotate(0 178.61753095675806 -9.563186338437475)"><path d="M-0.39 0.12 C59.11 -3.11, 297.86 -16.3, 357.62 -19.25" stroke="#1e1e1e" stroke-width="1.5" fill="none" stroke-dasharray="8 9"></path></g><g transform="translate(1160 177.1428571428571) rotate(0 178.61753095675806 -9.563186338437475)"><path d="M27.4 -13.24 C16.43 -8.23, 9.61 -3.22, 1.4 2.11" stroke="#1e1e1e" stroke-width="1.5" fill="none"></path></g><g transform="translate(1160 177.1428571428571) rotate(0 178.61753095675806 -9.563186338437475)"><path d="M28.52 7.25 C17.13 5.09, 9.92 2.92, 1.4 2.11" stroke="#1e1e1e" stroke-width="1.5" fill="none"></path></g><g transform="translate(1160 177.1428571428571) rotate(0 178.61753095675806 -9.563186338437475)"><path d="M330.21 -9.1 C338.54 -12.13, 351.05 -15.36, 359.41 -17.26" stroke="#1e1e1e" stroke-width="1.5" fill="none"></path></g><g transform="translate(1160 177.1428571428571) rotate(0 178.61753095675806 -9.563186338437475)"><path d="M329.13 -29.59 C337.86 -25.45, 350.75 -21.5, 359.41 -17.26" stroke="#1e1e1e" stroke-width="1.5" fill="none"></path></g></g><mask></mask><g stroke-linecap="round"><g transform="translate(595.7142857142858 374.2857142857142) rotate(0 199.78557208999985 19.83607067157118)"><path d="M0.23 0.6 C66.83 7.01, 332.79 32.6, 399.34 39.07" stroke="#1e1e1e" stroke-width="1.5" fill="none" stroke-dasharray="8 9"></path></g><g transform="translate(595.7142857142858 374.2857142857142) rotate(0 199.78557208999985 19.83607067157118)"><path d="M30.27 -8 C22.14 -5.51, 14.72 -1.8, 1.18 -0.98" stroke="#1e1e1e" stroke-width="1.5" fill="none"></path></g><g transform="translate(595.7142857142858 374.2857142857142) rotate(0 199.78557208999985 19.83607067157118)"><path d="M28.31 12.42 C20.62 9.28, 13.74 7.37, 1.18 -0.98" stroke="#1e1e1e" stroke-width="1.5" fill="none"></path></g><g transform="translate(595.7142857142858 374.2857142857142) rotate(0 199.78557208999985 19.83607067157118)"><path d="M371.3 45.48 C379.09 43.72, 387.66 43.31, 400.3 37.49" stroke="#1e1e1e" stroke-width="1.5" fill="none"></path></g><g transform="translate(595.7142857142858 374.2857142857142) rotate(0 199.78557208999985 19.83607067157118)"><path d="M373.27 25.05 C380.62 28.93, 388.65 34.13, 400.3 37.49" stroke="#1e1e1e" stroke-width="1.5" fill="none"></path></g></g><mask></mask><g transform="translate(652.8571428571429 361.42857142857144) rotate(0 3.8916015625 11.5)"><text x="0" y="0" font-family="Helvetica, Segoe UI Emoji" font-size="20px" fill="#1e1e1e" text-anchor="start" style="white-space: pre;" direction="ltr" dominant-baseline="text-before-edge">*</text></g><g stroke-linecap="round"><g transform="translate(1165.7142857142858 410) rotate(0 184.0585758452969 -108.6853716736394)"><path d="M1.07 -0.01 C62.09 -36.05, 306.2 -181.17, 367.05 -217.36" stroke="#1e1e1e" stroke-width="1.5" fill="none" stroke-dasharray="8 9"></path></g><g transform="translate(1165.7142857142858 410) rotate(0 184.0585758452969 -108.6853716736394)"><path d="M20.06 -23.38 C12.29 -15.91, 5.36 -6.84, 2.49 0.59" stroke="#1e1e1e" stroke-width="1.5" fill="none"></path></g><g transform="translate(1165.7142857142858 410) rotate(0 184.0585758452969 -108.6853716736394)"><path d="M30.54 -5.73 C18.95 -4.87, 8.05 -2.49, 2.49 0.59" stroke="#1e1e1e" stroke-width="1.5" fill="none"></path></g><g transform="translate(1165.7142857142858 410) rotate(0 184.0585758452969 -108.6853716736394)"><path d="M348.05 -194.3 C355.1 -204.78, 362.59 -213.33, 368.47 -216.77" stroke="#1e1e1e" stroke-width="1.5" fill="none"></path></g><g transform="translate(1165.7142857142858 410) rotate(0 184.0585758452969 -108.6853716736394)"><path d="M337.56 -211.94 C348.43 -215.82, 359.9 -217.68, 368.47 -216.77" stroke="#1e1e1e" stroke-width="1.5" fill="none"></path></g></g><mask></mask><g transform="translate(1458.5714285714287 212.85714285714278) rotate(0 3.8916015625 11.5)"><text x="0" y="0" font-family="Helvetica, Segoe UI Emoji" font-size="20px" fill="#1e1e1e" text-anchor="start" style="white-space: pre;" direction="ltr" dominant-baseline="text-before-edge">*</text></g><g stroke-linecap="round"><g transform="translate(794.2857142857144 821.4285714285712) rotate(0 1.957654971203624 167.24882925631744)"><path d="M-0.7 -0.65 C0.05 55.06, 3.91 279.13, 4.61 335.14" stroke="#1e1e1e" stroke-width="1.5" fill="none" stroke-dasharray="8 9"></path></g></g><mask></mask><g transform="translate(817.1428571428573 855.7142857142857) rotate(0 299.08691406249994 80.5)"><text x="0" y="0" font-family="Helvetica, Segoe UI Emoji" font-size="20px" fill="#1e1e1e" text-anchor="start" style="white-space: pre;" direction="ltr" dominant-baseline="text-before-edge">UC - CENTRAL é este relatório.</text><text x="0" y="23" font-family="Helvetica, Segoe UI Emoji" font-size="20px" fill="#1e1e1e" text-anchor="start" style="white-space: pre;" direction="ltr" dominant-baseline="text-before-edge">Um passageiro pode solicitar mais de um veículo, desde que</text><text x="0" y="46" font-family="Helvetica, Segoe UI Emoji" font-size="20px" fill="#1e1e1e" text-anchor="start" style="white-space: pre;" direction="ltr" dominant-baseline="text-before-edge">seja para dias diferentes.</text><text x="0" y="69" font-family="Helvetica, Segoe UI Emoji" font-size="20px" fill="#1e1e1e" text-anchor="start" style="white-space: pre;" direction="ltr" dominant-baseline="text-before-edge"></text><text x="0" y="92" font-family="Helvetica, Segoe UI Emoji" font-size="20px" fill="#1e1e1e" text-anchor="start" style="white-space: pre;" direction="ltr" dominant-baseline="text-before-edge">Um veículo pode ser alocado para 1 motorista e N passageiros,</text><text x="0" y="115" font-family="Helvetica, Segoe UI Emoji" font-size="20px" fill="#1e1e1e" text-anchor="start" style="white-space: pre;" direction="ltr" dominant-baseline="text-before-edge">quero que no relatório eu tenha o registro de uma viagem que deve</text><text x="0" y="138" font-family="Helvetica, Segoe UI Emoji" font-size="20px" fill="#1e1e1e" text-anchor="start" style="white-space: pre;" direction="ltr" dominant-baseline="text-before-edge">trazer o motorista, carro, detino, km total e os passageiros.</text></g><g stroke-linecap="round" transform="translate(808.5714285714287 835.7142857142857) rotate(0 317.8571428571428 100.71428571428567)"><path d="M32 0 M32 0 C147.05 -2.02, 263.51 -2, 603.71 0 M603.71 0 C625.61 -1.19, 637.55 12.57, 635.71 32 M635.71 32 C634.5 74.98, 634.42 122.2, 635.71 169.43 M635.71 169.43 C633.87 191.03, 626.26 201.81, 603.71 201.43 M603.71 201.43 C478.01 203.39, 353.09 203.33, 32 201.43 M32 201.43 C11.74 202.48, -1.11 189.24, 0 169.43 M0 169.43 C-1.06 125.41, -0.11 81.8, 0 32 M0 32 C1.36 11.42, 11.22 -1.62, 32 0" stroke="#1e1e1e" stroke-width="1.5" fill="none" stroke-dasharray="8 9"></path></g><g transform="translate(831.4285714285713 1078.5714285714284) rotate(0 222.880859375 34.5)"><text x="0" y="0" font-family="Helvetica, Segoe UI Emoji" font-size="20px" fill="#1e1e1e" text-anchor="start" style="white-space: pre;" direction="ltr" dominant-baseline="text-before-edge">Cadastros em geral de Pessoa e veículo é CRUD.</text><text x="0" y="23" font-family="Helvetica, Segoe UI Emoji" font-size="20px" fill="#1e1e1e" text-anchor="start" style="white-space: pre;" direction="ltr" dominant-baseline="text-before-edge"></text><text x="0" y="46" font-family="Helvetica, Segoe UI Emoji" font-size="20px" fill="#1e1e1e" text-anchor="start" style="white-space: pre;" direction="ltr" dominant-baseline="text-before-edge">Viagem é CRUD</text></g><g stroke-linecap="round"><g transform="translate(1469.9999999999998 828.5714285714286) rotate(0 0.860375091539936 156.6231865826462)"><path d="M0.06 -0.12 C0.23 51.99, 1.55 261.06, 1.66 313.37" stroke="#1e1e1e" stroke-width="1.5" fill="none" stroke-dasharray="8 9"></path></g></g><mask></mask><g transform="translate(1504.2857142857144 834.2857142857143) rotate(0 302.3681640625 46)"><text x="0" y="0" font-family="Helvetica, Segoe UI Emoji" font-size="20px" fill="#1e1e1e" text-anchor="start" style="white-space: pre;" direction="ltr" dominant-baseline="text-before-edge">Feature 1 - cadastros de Pessoas e Veículos com relacionamentos</text><text x="0" y="23" font-family="Helvetica, Segoe UI Emoji" font-size="20px" fill="#1e1e1e" text-anchor="start" style="white-space: pre;" direction="ltr" dominant-baseline="text-before-edge"></text><text x="0" y="46" font-family="Helvetica, Segoe UI Emoji" font-size="20px" fill="#1e1e1e" text-anchor="start" style="white-space: pre;" direction="ltr" dominant-baseline="text-before-edge">Feature  1.1 - Observar se vai ser controlado perfil via roles ou não. </text><text x="0" y="69" font-family="Helvetica, Segoe UI Emoji" font-size="20px" fill="#1e1e1e" text-anchor="start" style="white-space: pre;" direction="ltr" dominant-baseline="text-before-edge">Se for usar Basic Auth.</text></g><g transform="translate(1504.2857142857142 1057.1428571428569) rotate(0 337.4121093749999 23)"><text x="0" y="0" font-family="Helvetica, Segoe UI Emoji" font-size="20px" fill="#e03131" text-anchor="start" style="white-space: pre;" direction="ltr" dominant-baseline="text-before-edge">Feature N (Se der tempo, colocar uma chamada de API que ache os dados </text><text x="0" y="23" font-family="Helvetica, Segoe UI Emoji" font-size="20px" fill="#e03131" text-anchor="start" style="white-space: pre;" direction="ltr" dominant-baseline="text-before-edge">do endereço pelo: https://viacep.com.br/</text></g><g transform="translate(1742.857142857143 744.2857142857141) rotate(0 68.92578125 11.5)"><text x="0" y="0" font-family="Helvetica, Segoe UI Emoji" font-size="20px" fill="#e03131" text-anchor="start" style="white-space: pre;" direction="ltr" dominant-baseline="text-before-edge">Features Ideias</text></g><g stroke-linecap="round" transform="translate(192.8571428571429 68.5714285714285) rotate(0 110.71428571428575 67.85714285714283)"><path d="M138.75 17 M138.75 17 C154.13 27.3, 167.75 34.06, 193.68 51 M193.68 51 C220.13 67.97, 220.56 68.26, 193.68 85 M193.68 85 C176.29 97.67, 158.91 104.95, 138.75 118.71 M138.75 118.71 C112.01 135.77, 109.87 135.61, 83.25 118.71 M83.25 118.71 C68 108.97, 51.76 99.79, 27.75 85 M27.75 85 C0.38 67.41, 1.08 67.45, 27.75 51 M27.75 51 C49.1 37.77, 71.73 22.57, 83.25 17 M83.25 17 C112.85 -0.38, 109.06 1.13, 138.75 17" stroke="#e03131" stroke-width="1.5" fill="none" stroke-dasharray="8 9"></path></g><g transform="translate(211.4285714285715 111.42857142857133) rotate(0 87.275390625 23)"><text x="0" y="0" font-family="Helvetica, Segoe UI Emoji" font-size="20px" fill="#e03131" text-anchor="start" style="white-space: pre;" direction="ltr" dominant-baseline="text-before-edge">Será que </text><text x="0" y="23" font-family="Helvetica, Segoe UI Emoji" font-size="20px" fill="#e03131" text-anchor="start" style="white-space: pre;" direction="ltr" dominant-baseline="text-before-edge">uso relacionamento</text></g><g transform="translate(824.2857142857144 1188.5714285714284) rotate(0 314.57519531250006 126.5)"><text x="0" y="0" font-family="Helvetica, Segoe UI Emoji" font-size="20px" fill="#e03131" text-anchor="start" style="white-space: pre;" direction="ltr" dominant-baseline="text-before-edge">UC - VIAGEM</text><text x="0" y="23" font-family="Helvetica, Segoe UI Emoji" font-size="20px" fill="#e03131" text-anchor="start" style="white-space: pre;" direction="ltr" dominant-baseline="text-before-edge">1 passageiro pede veículo oficial.</text><text x="0" y="46" font-family="Helvetica, Segoe UI Emoji" font-size="20px" fill="#e03131" text-anchor="start" style="white-space: pre;" direction="ltr" dominant-baseline="text-before-edge"></text><text x="0" y="69" font-family="Helvetica, Segoe UI Emoji" font-size="20px" fill="#e03131" text-anchor="start" style="white-space: pre;" direction="ltr" dominant-baseline="text-before-edge">2 motorista confirma solicitação.</text><text x="0" y="92" font-family="Helvetica, Segoe UI Emoji" font-size="20px" fill="#e03131" text-anchor="start" style="white-space: pre;" direction="ltr" dominant-baseline="text-before-edge"></text><text x="0" y="115" font-family="Helvetica, Segoe UI Emoji" font-size="20px" fill="#e03131" text-anchor="start" style="white-space: pre;" direction="ltr" dominant-baseline="text-before-edge">3 Motorista confirma posteriormente se viagem ocorreu com sucesso e</text><text x="0" y="138" font-family="Helvetica, Segoe UI Emoji" font-size="20px" fill="#e03131" text-anchor="start" style="white-space: pre;" direction="ltr" dominant-baseline="text-before-edge">entra com a quilometragem atual do veículo.</text><text x="0" y="161" font-family="Helvetica, Segoe UI Emoji" font-size="20px" fill="#e03131" text-anchor="start" style="white-space: pre;" direction="ltr" dominant-baseline="text-before-edge"></text><text x="0" y="184" font-family="Helvetica, Segoe UI Emoji" font-size="20px" fill="#e03131" text-anchor="start" style="white-space: pre;" direction="ltr" dominant-baseline="text-before-edge">3.1 sistema crava distância percorrida na solicitação subtraindo da </text><text x="0" y="207" font-family="Helvetica, Segoe UI Emoji" font-size="20px" fill="#e03131" text-anchor="start" style="white-space: pre;" direction="ltr" dominant-baseline="text-before-edge">quilometragem anterior e salva na entidade de veículo nova KM </text><text x="0" y="230" font-family="Helvetica, Segoe UI Emoji" font-size="20px" fill="#e03131" text-anchor="start" style="white-space: pre;" direction="ltr" dominant-baseline="text-before-edge">do automóvel.</text></g><g stroke-linecap="round" transform="translate(814.2857142857144 1182.8571428571427) rotate(0 325.7142857142857 137.8571428571429)"><path d="M32 0 M32 0 C170.91 1.43, 310.43 2.77, 619.43 0 M619.43 0 C640.96 -1.49, 650.41 9.66, 651.43 32 M651.43 32 C650.75 85.54, 649.48 141.37, 651.43 243.71 M651.43 243.71 C651.95 265.13, 639.09 276.8, 619.43 275.71 M619.43 275.71 C495.46 277.62, 372.2 277.64, 32 275.71 M32 275.71 C9.62 276.08, -0.43 263.5, 0 243.71 M0 243.71 C-0.42 193.09, -0.08 140.71, 0 32 M0 32 C-0.47 10.37, 11.82 -0.12, 32 0" stroke="#e03131" stroke-width="1.5" fill="none" stroke-dasharray="8 9"></path></g></svg>